<svg width="8" height="14" viewBox="0 0 8 14" fill="none" xmlns="http://www.w3.org/2000/svg">
<path d="M6.57754 13.0976C6.45389 13.0984 6.33131 13.0747 6.21684 13.0279C6.10237 12.9811 5.99825 12.9123 5.91046 12.8252L0.273212 7.18792C0.0982211 7.01189 0 6.77376 0 6.52555C0 6.27733 0.0982211 6.0392 0.273212 5.86317L5.91046 0.225919C6.0902 0.0719977 6.3214 -0.00843274 6.55786 0.000700693C6.79432 0.00983412 7.01862 0.107858 7.18595 0.275186C7.35328 0.442513 7.4513 0.666818 7.46043 0.903279C7.46957 1.13974 7.38914 1.37094 7.23522 1.55067L2.26504 6.52085L7.23522 11.491C7.36715 11.6219 7.45732 11.7889 7.49432 11.971C7.53132 12.1531 7.5135 12.3421 7.44311 12.514C7.37271 12.686 7.2529 12.8332 7.09883 12.9371C6.94476 13.041 6.76335 13.0969 6.57754 13.0976Z" fill="#CCCED3"/>
</svg>
