<svg width="14" height="19" viewBox="0 0 14 19" fill="none" xmlns="http://www.w3.org/2000/svg">
<path d="M12.9193 12.9163C11.9113 11.9987 11.3333 10.6574 11.3333 9.23647V7.23466C11.3333 4.70798 9.59067 2.61642 7.33333 2.26603V1.49058C7.33333 1.09352 7.03467 0.772568 6.66667 0.772568C6.29867 0.772568 6 1.09352 6 1.49058V2.26603C3.742 2.61642 2 4.70798 2 7.23466V9.23647C2 10.6574 1.422 11.9987 0.408 12.922C0.148667 13.1611 0 13.5086 0 13.8763C0 14.5691 0.523333 15.1328 1.16667 15.1328H12.1667C12.81 15.1328 13.3333 14.5691 13.3333 13.8763C13.3333 13.5086 13.1847 13.1611 12.9193 12.9163Z" fill="white"/>
<path d="M6.99999 18.0048C8.20733 18.0048 9.21733 17.0779 9.44933 15.8508H4.55066C4.78266 17.0779 5.79266 18.0048 6.99999 18.0048Z" fill="white"/>
</svg>
