<svg width="61" height="61" viewBox="0 0 61 61" fill="none" xmlns="http://www.w3.org/2000/svg">
<path d="M30.3193 60.6387C13.5943 60.6387 0 47.0443 0 30.3193C0 13.5943 13.5943 0 30.3193 0C47.0443 0 60.6387 13.5943 60.6387 30.3193C60.6387 47.0443 47.0443 60.6387 30.3193 60.6387ZM30.3193 4.2306C15.9353 4.2306 4.2306 15.9353 4.2306 30.3193C4.2306 44.7034 15.9353 56.4081 30.3193 56.4081C44.7034 56.4081 56.4081 44.7034 56.4081 30.3193C56.4081 15.9353 44.7034 4.2306 30.3193 4.2306Z" fill="#0A4B97"/>
<path d="M40.7821 41.4035C40.4154 41.4035 40.0488 41.3189 39.7103 41.0932L30.9671 35.8755C28.7954 34.5781 27.1877 31.7295 27.1877 29.2193V17.6557C27.1877 16.4993 28.1467 15.5404 29.303 15.5404C30.4594 15.5404 31.4183 16.4993 31.4183 17.6557V29.2193C31.4183 30.2347 32.2645 31.7295 33.1388 32.2372L41.882 37.4549C42.8974 38.0472 43.2076 39.3446 42.6154 40.3599C42.1923 41.0368 41.4872 41.4035 40.7821 41.4035Z" fill="#0A4B97"/>
</svg>
