<svg width="16" height="11" viewBox="0 0 16 11" fill="none" xmlns="http://www.w3.org/2000/svg">
<path d="M15.8983 5.18907C15.7554 4.99354 12.3497 0.401367 7.99993 0.401367C3.6502 0.401367 0.244313 4.99354 0.101532 5.18888C-0.0338438 5.37438 -0.0338438 5.62598 0.101532 5.81148C0.244313 6.00701 3.6502 10.5992 7.99993 10.5992C12.3497 10.5992 15.7554 6.00698 15.8983 5.81163C16.0339 5.62616 16.0339 5.37438 15.8983 5.18907ZM7.99993 9.54424C4.79589 9.54424 2.02085 6.49632 1.19938 5.49991C2.01979 4.50263 4.78901 1.45631 7.99993 1.45631C11.2038 1.45631 13.9787 4.50369 14.8005 5.50063C13.9801 6.49789 11.2108 9.54424 7.99993 9.54424Z" fill="white"/>
<path d="M7.99994 2.33588C6.25487 2.33588 4.83508 3.75566 4.83508 5.50073C4.83508 7.2458 6.25487 8.66558 7.99994 8.66558C9.745 8.66558 11.1648 7.2458 11.1648 5.50073C11.1648 3.75566 9.745 2.33588 7.99994 2.33588ZM7.99994 7.61061C6.8365 7.61061 5.89005 6.66414 5.89005 5.50073C5.89005 4.33732 6.83653 3.39085 7.99994 3.39085C9.16335 3.39085 10.1098 4.33732 10.1098 5.50073C10.1098 6.66414 9.16338 7.61061 7.99994 7.61061Z" fill="white"/>
</svg>
