<svg width="66" height="67" viewBox="0 0 66 67" fill="none" xmlns="http://www.w3.org/2000/svg">
<path d="M51.5901 18.6722C51.4079 18.6418 51.1953 18.6418 51.0131 18.6722C46.8217 18.5203 43.4807 15.0882 43.4807 10.8361C43.4807 6.49283 46.9735 3 51.3168 3C55.6601 3 59.1529 6.5232 59.1529 10.8361C59.1225 15.0882 55.7815 18.5203 51.5901 18.6722Z" stroke="#0A4B97" stroke-width="4.55586" stroke-linecap="round" stroke-linejoin="round"/>
<path d="M48.46 40.783C52.621 41.4815 57.2073 40.7526 60.4267 38.5962C64.7093 35.7412 64.7093 31.0638 60.4267 28.2088C57.1769 26.0524 52.5299 25.3235 48.3689 26.0524" stroke="#0A4B97" stroke-width="4.55586" stroke-linecap="round" stroke-linejoin="round"/>
<path d="M15.0473 18.6722C15.2296 18.6418 15.4422 18.6418 15.6244 18.6722C19.8158 18.5203 23.1568 15.0882 23.1568 10.8361C23.1568 6.49283 19.664 3 15.3207 3C10.9774 3 7.48462 6.5232 7.48462 10.8361C7.51499 15.0882 10.856 18.5203 15.0473 18.6722Z" stroke="#0A4B97" stroke-width="4.55586" stroke-linecap="round" stroke-linejoin="round"/>
<path d="M18.1786 40.783C14.0176 41.4815 9.43136 40.7526 6.21188 38.5962C1.92937 35.7412 1.92937 31.0638 6.21188 28.2088C9.46173 26.0524 14.1087 25.3235 18.2697 26.0524" stroke="#0A4B97" stroke-width="4.55586" stroke-linecap="round" stroke-linejoin="round"/>
<path d="M33.3668 41.3604C33.1846 41.33 32.972 41.33 32.7897 41.3604C28.5983 41.2085 25.2573 37.7764 25.2573 33.5243C25.2573 29.181 28.7502 25.6881 33.0935 25.6881C37.4367 25.6881 40.9295 29.2114 40.9295 33.5243C40.8992 37.7764 37.5582 41.2389 33.3668 41.3604Z" stroke="#0A4B97" stroke-width="4.55586" stroke-linecap="round" stroke-linejoin="round"/>
<path d="M42.207 50.9273C37.3778 47.7078 29.3898 47.7078 24.5302 50.9273C20.2477 53.7823 20.2477 58.4597 24.5302 61.3147C29.3898 64.5645 37.3474 64.5645 42.207 61.3147" stroke="#0A4B97" stroke-width="4.55586" stroke-linecap="round" stroke-linejoin="round"/>
</svg>
